<?xml version="1.0" encoding="UTF-8"?>
<svg width="445px" height="445px" viewBox="0 0 445 445" version="1.1" xmlns="http://www.w3.org/2000/svg" xmlns:xlink="http://www.w3.org/1999/xlink">
    <!-- Generator: Sketch 43.2 (39069) - http://www.bohemiancoding.com/sketch -->
    <title>Shape</title>
    <desc>Created with Sketch.</desc>
    <defs></defs>
    <g id="Symbols" stroke="none" stroke-width="1" fill="none" fill-rule="evenodd">
        <g id="Icons/ProfileOn" fill-rule="nonzero" fill="#09A4C9">
            <path d="M445,222.5 C445,99.8175455 345.182455,0 222.5,0 C99.8175455,0 0,99.8175455 0,222.5 C0,287.300091 27.8650909,345.708364 72.2194545,386.405636 L72.0090909,386.591727 L79.2261818,392.676091 C79.6954545,393.072545 80.2051818,393.396182 80.6744545,393.784545 C84.5095455,396.964273 88.4821818,399.982182 92.5276364,402.903 C93.8383636,403.849636 95.1490909,404.796273 96.4840909,405.718636 C100.804636,408.696091 105.238455,411.519818 109.769364,414.197909 C110.756455,414.780455 111.751636,415.346818 112.746818,415.913182 C117.706545,418.736909 122.771455,421.398818 127.957727,423.842273 C128.338,424.020273 128.726364,424.182091 129.106636,424.360091 C146.008545,432.216364 164.051273,437.985182 182.919273,441.391455 C183.412818,441.480455 183.906364,441.569455 184.408,441.658455 C190.265818,442.669818 196.188364,443.478909 202.183727,444.021 C202.911909,444.085727 203.640091,444.126182 204.376364,444.190909 C210.347455,444.684455 216.383273,445 222.5,445 C228.560091,445 234.539273,444.684455 240.478,444.207091 C241.230455,444.142364 241.982909,444.101909 242.735364,444.037182 C248.682182,443.495091 254.556182,442.710273 260.357364,441.715091 C260.859,441.626091 261.368727,441.537091 261.870364,441.44 C280.455182,438.106545 298.239,432.467182 314.922455,424.813182 C315.537364,424.53 316.160364,424.263 316.775273,423.971727 C321.767364,421.625364 326.646182,419.092909 331.427909,416.398636 C332.617273,415.727091 333.798545,415.047455 334.979818,414.351636 C339.332727,411.786818 343.612818,409.108727 347.771545,406.260727 C349.268364,405.241273 350.732818,404.165182 352.213455,403.097182 C355.765364,400.540455 359.252545,397.902818 362.642636,395.143818 C363.395091,394.537 364.204182,394.011091 364.940455,393.388091 L372.343636,387.206636 L372.125182,387.020545 C416.867909,346.307091 445,287.631818 445,222.5 Z M16.1818182,222.5 C16.1818182,108.733727 108.733727,16.1818182 222.5,16.1818182 C336.266273,16.1818182 428.818182,108.733727 428.818182,222.5 C428.818182,283.804818 401.915909,338.920091 359.325364,376.737 C356.946636,375.094545 354.551727,373.622 352.100182,372.392182 L283.594455,338.143364 C277.445364,335.068818 273.626455,328.887364 273.626455,322.018182 L273.626455,298.093364 C275.212273,296.135364 276.887091,293.918455 278.618545,291.483091 C287.486182,278.958364 294.598091,265.025818 299.784364,250.033364 C310.035545,245.162636 316.653909,234.951909 316.653909,223.422364 L316.653909,194.740091 C316.653909,187.725273 314.081,180.920818 309.477273,175.572727 L309.477273,137.812455 C309.898,133.613273 311.386727,109.915 294.242091,90.3673636 C279.330545,73.3440909 255.195364,64.7272727 222.5,64.7272727 C189.804636,64.7272727 165.669455,73.3440909 150.757909,90.3592727 C133.613273,109.906909 135.102,133.605182 135.522727,137.804364 L135.522727,175.564636 C130.927091,180.912727 128.346091,187.717182 128.346091,194.732 L128.346091,223.414273 C128.346091,232.322364 132.343,240.631727 139.187909,246.238727 C145.741545,271.911182 159.229091,291.345545 164.213091,297.931545 L164.213091,321.346636 C164.213091,327.948818 160.612636,334.017 154.811455,337.188636 L90.8366364,372.084727 C88.7977273,373.193182 86.775,374.487727 84.7522727,375.936 C42.6876364,338.135273 16.1818182,283.359818 16.1818182,222.5 Z M343.531909,389.431636 C340.700091,391.486727 337.819727,393.477091 334.898909,395.378455 C333.555818,396.252273 332.220818,397.126091 330.853455,397.975636 C327.034545,400.338182 323.150909,402.587455 319.186364,404.691091 C318.312545,405.152273 317.430636,405.589182 316.548727,406.042273 C307.438364,410.710727 298.012455,414.723818 288.327636,417.984455 C287.987818,418.097727 287.648,418.219091 287.300091,418.332364 C282.227091,420.015273 277.089364,421.512091 271.895,422.798545 C271.878818,422.798545 271.862636,422.806636 271.846455,422.806636 C266.603545,424.101182 261.295909,425.177273 255.955909,426.059182 C255.810273,426.083455 255.664636,426.115818 255.519,426.140091 C250.494545,426.957273 245.429636,427.547909 240.348545,427.992909 C239.450455,428.073818 238.552364,428.130455 237.646182,428.195182 C232.621727,428.575455 227.573,428.818182 222.5,428.818182 C217.370364,428.818182 212.256909,428.567364 207.167727,428.187091 C206.285818,428.122364 205.403909,428.065727 204.530091,427.984818 C199.400455,427.531727 194.295091,426.924909 189.238273,426.099636 C189.011727,426.059182 188.785182,426.018727 188.558636,425.978273 C177.862455,424.190182 167.336182,421.560636 157.085,418.122 C156.769455,418.016818 156.445818,417.903545 156.130273,417.798364 C151.041091,416.066909 146.008545,414.149364 141.065,412.029545 C141.032636,412.013364 140.992182,411.997182 140.959818,411.981 C136.283273,409.966364 131.695727,407.733273 127.164818,405.378818 C126.574182,405.071364 125.975455,404.780091 125.392909,404.464545 C121.258455,402.255727 117.213,399.868909 113.224182,397.376909 C112.042909,396.632545 110.869727,395.880091 109.704636,395.119545 C106.031364,392.716545 102.406636,390.216455 98.879,387.570727 C98.5149091,387.295636 98.167,387.004364 97.8029091,386.729273 C98.0618182,386.583636 98.3207273,386.438 98.5796364,386.292364 L162.554455,351.396273 C173.558091,345.392818 180.394909,333.879455 180.394909,321.346636 L180.386818,292.203182 L178.525909,289.953909 C178.347909,289.751636 160.855364,268.472545 154.245091,239.660818 L153.508818,236.456818 L150.749818,234.668727 C146.858091,232.152455 144.527909,227.945182 144.527909,223.406182 L144.527909,194.723909 C144.527909,190.961636 146.121818,187.458273 149.034545,184.828727 L151.704545,182.417636 L151.704545,137.351273 L151.631727,136.291364 C151.607455,136.097182 149.220636,116.638545 162.926636,101.015 C174.626091,87.6811818 194.675364,80.9090909 222.5,80.9090909 C250.219455,80.9090909 270.204,87.6245455 281.935818,100.861273 C295.625636,116.323 293.384455,136.145727 293.368273,136.307545 L293.295455,182.433818 L295.965455,184.844909 C298.870091,187.466364 300.472091,190.977818 300.472091,194.740091 L300.472091,223.422364 C300.472091,229.191182 296.548,234.426 290.916727,236.165545 L286.895545,237.403455 L285.601,241.408455 C280.827364,256.239091 274.031,269.937 265.406091,282.121909 C263.286273,285.115545 261.223091,287.769364 259.451182,289.800182 L257.444636,292.089909 L257.444636,322.018182 C257.444636,335.060727 264.694091,346.792545 276.361182,352.618 L344.866909,386.866818 C345.303818,387.085273 345.732636,387.311818 346.161455,387.538364 C345.295727,388.193727 344.405727,388.800545 343.531909,389.431636 Z" id="Shape"></path>
        </g>
    </g>
</svg>