<?xml version="1.0" encoding="UTF-8"?>
<svg width="414px" height="445px" viewBox="0 0 414 445" version="1.1" xmlns="http://www.w3.org/2000/svg" xmlns:xlink="http://www.w3.org/1999/xlink">
    <!-- Generator: Sketch 43.2 (39069) - http://www.bohemiancoding.com/sketch -->
    <title>music-player-2</title>
    <desc>Created with Sketch.</desc>
    <defs></defs>
    <g id="Symbols" stroke="none" stroke-width="1" fill="none" fill-rule="evenodd">
        <g id="Icons/WavesOn" fill-rule="nonzero" fill="#09A4C9">
            <g id="music-player-2">
                <path d="M410.322246,2.01463636 C408.572748,0.485454545 406.264381,-0.210363636 403.931716,0.0647272727 L152.846252,32.5173636 C148.812685,33.0432727 145.79156,36.4657273 145.79156,40.5354545 L145.79156,89.2184545 L145.79156,123.297364 L145.79156,328.677 C131.001816,310.917455 107.505077,299.363636 80.9953112,299.363636 C36.3344966,299.363636 0,332.026636 0,372.181818 C0,412.337 36.3344966,445 80.9953112,445 C125.656126,445 161.990622,412.337 161.990622,372.181818 C161.990622,370.304727 161.836731,368.46 161.674741,366.623364 C161.780035,366.097455 161.990622,365.620091 161.990622,365.069909 L161.990622,130.409273 L396.877025,100.044091 L396.877025,247.759818 C382.087281,230.008364 358.590541,218.454545 332.080776,218.454545 C287.419961,218.454545 251.085465,251.117545 251.085465,291.272727 C251.085465,331.427909 287.419961,364.090909 332.080776,364.090909 C376.336614,364.090909 412.371428,332.002364 413.01939,292.348818 C413.01939,292.243636 413.076087,292.154636 413.076087,292.049455 L413.076087,90.8366364 L413.076087,56.7658182 L413.076087,8.09090909 C413.076087,5.76072727 412.071745,3.54381818 410.322246,2.01463636 Z" id="Shape"></path>
            </g>
        </g>
    </g>
</svg>